<mxfile host="app.diagrams.net" modified="2024-04-06T16:24:49.971Z" agent="Mozilla/5.0 (X11; Linux x86_64) AppleWebKit/537.36 (KHTML, like Gecko) Chrome/122.0.0.0 Safari/537.36" version="24.2.2" etag="A29NAjst7-ci7Tas9xXf" type="github">
  <diagram name="Page-1" id="PmcRgAFP9wh0SiLkm-dg">
    <mxGraphModel>
      <root>
        <mxCell id="0" />
        <mxCell id="1" parent="0" />
      </root>
    </mxGraphModel>
  </diagram>
</mxfile>
